<svg width="1042" height="211" viewBox="0 0 1042 211" fill="none" xmlns="http://www.w3.org/2000/svg">
<path fill-rule="evenodd" clip-rule="evenodd" d="M420.188 105H415.474V112.857H402.904V128.834H394V210.029H442.186V128.834H433.282V112.857H420.188V105Z" fill="black" fill-opacity="0.05"/>
<path fill-rule="evenodd" clip-rule="evenodd" d="M887.071 103H882.767V110.994H871.289V127.247H863.16V209.847H907.156V127.247H899.026V110.994H887.071V103Z" fill="black" fill-opacity="0.05"/>
<rect x="725" y="97" width="49" height="113" fill="black" fill-opacity="0.05"/>
<path fill-rule="evenodd" clip-rule="evenodd" d="M685.604 129H661.511V141.047H636.894V210.183H685.604V146.284V141.047V129Z" fill="black" fill-opacity="0.05"/>
<path fill-rule="evenodd" clip-rule="evenodd" d="M287.38 171C282.752 171 279 174.752 279 179.38V210.282H355.469V179.38C355.469 174.752 351.717 171 347.089 171H287.38Z" fill="black" fill-opacity="0.05"/>
<path fill-rule="evenodd" clip-rule="evenodd" d="M708.126 100H705.507V106.809H699.222V105.238H696.08V106.809H695.556V209.99H715.459V106.809H713.887V105.238H711.269V106.809H708.126V100Z" fill="black" fill-opacity="0.05"/>
<path fill-rule="evenodd" clip-rule="evenodd" d="M582.959 109.784L595.855 87L608.107 109.784H614.187V210.346H577V109.784H582.959Z" fill="black" fill-opacity="0.05"/>
<path d="M907 19H955L949.462 210H911.747L907 19Z" fill="black" fill-opacity="0.05"/>
<path fill-rule="evenodd" clip-rule="evenodd" d="M556 19H508L509.939 97H472V210H512.747H521H550.462L556 19Z" fill="black" fill-opacity="0.05"/>
<path d="M1012 128H1042L1038.54 210H1014.97L1012 128Z" fill="black" fill-opacity="0.05"/>
<path fill-rule="evenodd" clip-rule="evenodd" d="M179.127 0H174.413V15.7128H161.842V47.6624H152.938V80H113V210H152.938V210.029H201.125V210H229V97H201.125V47.6624H192.221V15.7128H179.127V0Z" fill="black" fill-opacity="0.05"/>
<path d="M0 61C0 47.1929 11.1929 36 25 36C38.8071 36 50 47.1929 50 61V210H0V61Z" fill="black" fill-opacity="0.05"/>
</svg>
